<mxfile host="app.diagrams.net" modified="2021-07-28T19:49:36.082Z" agent="5.0 (Windows NT 10.0; Win64; x64) AppleWebKit/537.36 (KHTML, like Gecko) Chrome/92.0.4515.107 Safari/537.36" etag="TlDZq97xxggcGY6DoMux" version="14.9.2" type="github">
  <diagram id="7B9KSFzoQ_J-I4pnupjt" name="Page-1">
    <mxGraphModel dx="734" dy="601" grid="1" gridSize="10" guides="1" tooltips="1" connect="1" arrows="1" fold="1" page="1" pageScale="1" pageWidth="827" pageHeight="1169" math="0" shadow="0">
      <root>
        <mxCell id="0" />
        <mxCell id="1" parent="0" />
        <mxCell id="srdftgd20x84Ldhx3U6x-1" value="USER" style="rounded=0;whiteSpace=wrap;html=1;" vertex="1" parent="1">
          <mxGeometry x="100" y="360" width="120" height="60" as="geometry" />
        </mxCell>
        <mxCell id="srdftgd20x84Ldhx3U6x-4" value="CONTACT" style="rounded=0;whiteSpace=wrap;html=1;" vertex="1" parent="1">
          <mxGeometry x="440" y="360" width="120" height="60" as="geometry" />
        </mxCell>
        <mxCell id="srdftgd20x84Ldhx3U6x-5" value="&lt;u&gt;ID&lt;/u&gt;" style="ellipse;whiteSpace=wrap;html=1;" vertex="1" parent="1">
          <mxGeometry x="10" y="200" width="50" height="60" as="geometry" />
        </mxCell>
        <mxCell id="srdftgd20x84Ldhx3U6x-6" value="name" style="ellipse;whiteSpace=wrap;html=1;" vertex="1" parent="1">
          <mxGeometry x="70" y="200" width="50" height="60" as="geometry" />
        </mxCell>
        <mxCell id="srdftgd20x84Ldhx3U6x-7" value="email" style="ellipse;whiteSpace=wrap;html=1;" vertex="1" parent="1">
          <mxGeometry x="130" y="200" width="50" height="60" as="geometry" />
        </mxCell>
        <mxCell id="srdftgd20x84Ldhx3U6x-8" value="Password" style="ellipse;whiteSpace=wrap;html=1;" vertex="1" parent="1">
          <mxGeometry x="190" y="200" width="50" height="60" as="geometry" />
        </mxCell>
        <mxCell id="srdftgd20x84Ldhx3U6x-9" value="Image" style="ellipse;whiteSpace=wrap;html=1;" vertex="1" parent="1">
          <mxGeometry x="230" y="260" width="50" height="60" as="geometry" />
        </mxCell>
        <mxCell id="srdftgd20x84Ldhx3U6x-10" value="Description" style="ellipse;whiteSpace=wrap;html=1;" vertex="1" parent="1">
          <mxGeometry x="260" y="320" width="50" height="60" as="geometry" />
        </mxCell>
        <mxCell id="srdftgd20x84Ldhx3U6x-11" value="role" style="ellipse;whiteSpace=wrap;html=1;" vertex="1" parent="1">
          <mxGeometry x="20" y="290" width="50" height="60" as="geometry" />
        </mxCell>
        <mxCell id="srdftgd20x84Ldhx3U6x-12" value="enabled" style="ellipse;whiteSpace=wrap;html=1;" vertex="1" parent="1">
          <mxGeometry x="20" y="370" width="50" height="60" as="geometry" />
        </mxCell>
        <mxCell id="srdftgd20x84Ldhx3U6x-17" value="" style="endArrow=none;html=1;entryX=0.37;entryY=0.013;entryDx=0;entryDy=0;entryPerimeter=0;exitX=0.88;exitY=1;exitDx=0;exitDy=0;exitPerimeter=0;" edge="1" parent="1" source="srdftgd20x84Ldhx3U6x-5" target="srdftgd20x84Ldhx3U6x-1">
          <mxGeometry width="50" height="50" relative="1" as="geometry">
            <mxPoint x="50" y="500" as="sourcePoint" />
            <mxPoint x="100" y="450" as="targetPoint" />
          </mxGeometry>
        </mxCell>
        <mxCell id="srdftgd20x84Ldhx3U6x-19" value="" style="endArrow=none;html=1;exitX=0.5;exitY=1;exitDx=0;exitDy=0;" edge="1" parent="1" source="srdftgd20x84Ldhx3U6x-6">
          <mxGeometry width="50" height="50" relative="1" as="geometry">
            <mxPoint x="64" y="270" as="sourcePoint" />
            <mxPoint x="154" y="360" as="targetPoint" />
          </mxGeometry>
        </mxCell>
        <mxCell id="srdftgd20x84Ldhx3U6x-20" value="" style="endArrow=none;html=1;entryX=0.443;entryY=0.04;entryDx=0;entryDy=0;entryPerimeter=0;exitX=0.5;exitY=1;exitDx=0;exitDy=0;" edge="1" parent="1" source="srdftgd20x84Ldhx3U6x-7" target="srdftgd20x84Ldhx3U6x-1">
          <mxGeometry width="50" height="50" relative="1" as="geometry">
            <mxPoint x="74" y="280" as="sourcePoint" />
            <mxPoint x="164.39999999999998" y="380.78" as="targetPoint" />
          </mxGeometry>
        </mxCell>
        <mxCell id="srdftgd20x84Ldhx3U6x-21" value="" style="endArrow=none;html=1;exitX=0.5;exitY=1;exitDx=0;exitDy=0;" edge="1" parent="1" source="srdftgd20x84Ldhx3U6x-8">
          <mxGeometry width="50" height="50" relative="1" as="geometry">
            <mxPoint x="84" y="290" as="sourcePoint" />
            <mxPoint x="150" y="360" as="targetPoint" />
          </mxGeometry>
        </mxCell>
        <mxCell id="srdftgd20x84Ldhx3U6x-22" value="" style="endArrow=none;html=1;entryX=0.5;entryY=0;entryDx=0;entryDy=0;" edge="1" parent="1" source="srdftgd20x84Ldhx3U6x-9" target="srdftgd20x84Ldhx3U6x-1">
          <mxGeometry width="50" height="50" relative="1" as="geometry">
            <mxPoint x="94" y="300" as="sourcePoint" />
            <mxPoint x="184.39999999999998" y="400.78" as="targetPoint" />
          </mxGeometry>
        </mxCell>
        <mxCell id="srdftgd20x84Ldhx3U6x-23" value="" style="endArrow=none;html=1;exitX=0;exitY=0.5;exitDx=0;exitDy=0;" edge="1" parent="1" source="srdftgd20x84Ldhx3U6x-10">
          <mxGeometry width="50" height="50" relative="1" as="geometry">
            <mxPoint x="104" y="310" as="sourcePoint" />
            <mxPoint x="150" y="360" as="targetPoint" />
          </mxGeometry>
        </mxCell>
        <mxCell id="srdftgd20x84Ldhx3U6x-24" value="" style="endArrow=none;html=1;exitX=1.048;exitY=0.713;exitDx=0;exitDy=0;exitPerimeter=0;" edge="1" parent="1" source="srdftgd20x84Ldhx3U6x-11">
          <mxGeometry width="50" height="50" relative="1" as="geometry">
            <mxPoint x="114" y="320" as="sourcePoint" />
            <mxPoint x="150" y="360" as="targetPoint" />
          </mxGeometry>
        </mxCell>
        <mxCell id="srdftgd20x84Ldhx3U6x-25" value="" style="endArrow=none;html=1;entryX=0.337;entryY=0.013;entryDx=0;entryDy=0;entryPerimeter=0;exitX=1;exitY=0.5;exitDx=0;exitDy=0;" edge="1" parent="1" source="srdftgd20x84Ldhx3U6x-12" target="srdftgd20x84Ldhx3U6x-1">
          <mxGeometry width="50" height="50" relative="1" as="geometry">
            <mxPoint x="124" y="330" as="sourcePoint" />
            <mxPoint x="214.39999999999998" y="430.78" as="targetPoint" />
          </mxGeometry>
        </mxCell>
        <mxCell id="srdftgd20x84Ldhx3U6x-26" value="&lt;u&gt;CID&lt;/u&gt;" style="ellipse;whiteSpace=wrap;html=1;" vertex="1" parent="1">
          <mxGeometry x="420" y="270" width="50" height="60" as="geometry" />
        </mxCell>
        <mxCell id="srdftgd20x84Ldhx3U6x-27" value="name" style="ellipse;whiteSpace=wrap;html=1;" vertex="1" parent="1">
          <mxGeometry x="490" y="270" width="50" height="60" as="geometry" />
        </mxCell>
        <mxCell id="srdftgd20x84Ldhx3U6x-31" value="nickname" style="ellipse;whiteSpace=wrap;html=1;" vertex="1" parent="1">
          <mxGeometry x="560" y="270" width="50" height="60" as="geometry" />
        </mxCell>
        <mxCell id="srdftgd20x84Ldhx3U6x-32" value="work" style="ellipse;whiteSpace=wrap;html=1;" vertex="1" parent="1">
          <mxGeometry x="640" y="290" width="50" height="60" as="geometry" />
        </mxCell>
        <mxCell id="srdftgd20x84Ldhx3U6x-33" value="email" style="ellipse;whiteSpace=wrap;html=1;" vertex="1" parent="1">
          <mxGeometry x="620" y="370" width="50" height="60" as="geometry" />
        </mxCell>
        <mxCell id="srdftgd20x84Ldhx3U6x-34" value="image" style="ellipse;whiteSpace=wrap;html=1;" vertex="1" parent="1">
          <mxGeometry x="580" y="440" width="50" height="60" as="geometry" />
        </mxCell>
        <mxCell id="srdftgd20x84Ldhx3U6x-35" value="about" style="ellipse;whiteSpace=wrap;html=1;" vertex="1" parent="1">
          <mxGeometry x="400" y="460" width="50" height="60" as="geometry" />
        </mxCell>
        <mxCell id="srdftgd20x84Ldhx3U6x-36" value="contact" style="ellipse;whiteSpace=wrap;html=1;" vertex="1" parent="1">
          <mxGeometry x="490" y="450" width="50" height="60" as="geometry" />
        </mxCell>
        <mxCell id="srdftgd20x84Ldhx3U6x-37" value="" style="endArrow=none;html=1;entryX=0.19;entryY=0;entryDx=0;entryDy=0;entryPerimeter=0;exitX=0.5;exitY=1;exitDx=0;exitDy=0;" edge="1" parent="1" source="srdftgd20x84Ldhx3U6x-26" target="srdftgd20x84Ldhx3U6x-4">
          <mxGeometry width="50" height="50" relative="1" as="geometry">
            <mxPoint x="360" y="510" as="sourcePoint" />
            <mxPoint x="410" y="460" as="targetPoint" />
          </mxGeometry>
        </mxCell>
        <mxCell id="srdftgd20x84Ldhx3U6x-38" value="" style="endArrow=none;html=1;exitX=0.5;exitY=1;exitDx=0;exitDy=0;" edge="1" parent="1" source="srdftgd20x84Ldhx3U6x-27">
          <mxGeometry width="50" height="50" relative="1" as="geometry">
            <mxPoint x="455" y="340" as="sourcePoint" />
            <mxPoint x="460" y="360" as="targetPoint" />
          </mxGeometry>
        </mxCell>
        <mxCell id="srdftgd20x84Ldhx3U6x-39" value="" style="endArrow=none;html=1;exitX=0;exitY=1;exitDx=0;exitDy=0;entryX=0.25;entryY=0;entryDx=0;entryDy=0;" edge="1" parent="1" source="srdftgd20x84Ldhx3U6x-31" target="srdftgd20x84Ldhx3U6x-4">
          <mxGeometry width="50" height="50" relative="1" as="geometry">
            <mxPoint x="525" y="340" as="sourcePoint" />
            <mxPoint x="470" y="370" as="targetPoint" />
          </mxGeometry>
        </mxCell>
        <mxCell id="srdftgd20x84Ldhx3U6x-41" value="" style="endArrow=none;html=1;exitX=0;exitY=1;exitDx=0;exitDy=0;entryX=1;entryY=0.25;entryDx=0;entryDy=0;" edge="1" parent="1" target="srdftgd20x84Ldhx3U6x-4">
          <mxGeometry width="50" height="50" relative="1" as="geometry">
            <mxPoint x="630.0023304703362" y="381.2132034355966" as="sourcePoint" />
            <mxPoint x="532.68" y="420" as="targetPoint" />
          </mxGeometry>
        </mxCell>
        <mxCell id="srdftgd20x84Ldhx3U6x-42" value="" style="endArrow=none;html=1;entryX=0.25;entryY=0;entryDx=0;entryDy=0;" edge="1" parent="1" source="srdftgd20x84Ldhx3U6x-32" target="srdftgd20x84Ldhx3U6x-4">
          <mxGeometry width="50" height="50" relative="1" as="geometry">
            <mxPoint x="597.3223304703363" y="351.2132034355966" as="sourcePoint" />
            <mxPoint x="500" y="390" as="targetPoint" />
          </mxGeometry>
        </mxCell>
        <mxCell id="srdftgd20x84Ldhx3U6x-43" value="" style="endArrow=none;html=1;exitX=0;exitY=0;exitDx=0;exitDy=0;entryX=0.75;entryY=1;entryDx=0;entryDy=0;" edge="1" parent="1" source="srdftgd20x84Ldhx3U6x-34" target="srdftgd20x84Ldhx3U6x-4">
          <mxGeometry width="50" height="50" relative="1" as="geometry">
            <mxPoint x="620.0023304703363" y="330.00320343559656" as="sourcePoint" />
            <mxPoint x="522.6799999999998" y="368.78999999999996" as="targetPoint" />
          </mxGeometry>
        </mxCell>
        <mxCell id="srdftgd20x84Ldhx3U6x-44" value="" style="endArrow=none;html=1;entryX=0.57;entryY=1.067;entryDx=0;entryDy=0;entryPerimeter=0;" edge="1" parent="1" source="srdftgd20x84Ldhx3U6x-36" target="srdftgd20x84Ldhx3U6x-4">
          <mxGeometry width="50" height="50" relative="1" as="geometry">
            <mxPoint x="597.3223304703363" y="458.78679656440363" as="sourcePoint" />
            <mxPoint x="540" y="430" as="targetPoint" />
          </mxGeometry>
        </mxCell>
        <mxCell id="srdftgd20x84Ldhx3U6x-45" value="" style="endArrow=none;html=1;entryX=0.17;entryY=1.04;entryDx=0;entryDy=0;entryPerimeter=0;exitX=1;exitY=0.187;exitDx=0;exitDy=0;exitPerimeter=0;" edge="1" parent="1" source="srdftgd20x84Ldhx3U6x-35" target="srdftgd20x84Ldhx3U6x-4">
          <mxGeometry width="50" height="50" relative="1" as="geometry">
            <mxPoint x="521.7549600437203" y="460.25380040076925" as="sourcePoint" />
            <mxPoint x="518.4000000000001" y="434.02" as="targetPoint" />
          </mxGeometry>
        </mxCell>
        <mxCell id="srdftgd20x84Ldhx3U6x-46" value="has" style="rhombus;whiteSpace=wrap;html=1;" vertex="1" parent="1">
          <mxGeometry x="280" y="450" width="80" height="80" as="geometry" />
        </mxCell>
        <mxCell id="srdftgd20x84Ldhx3U6x-47" value="" style="endArrow=none;html=1;exitX=0.5;exitY=1;exitDx=0;exitDy=0;entryX=0;entryY=0.5;entryDx=0;entryDy=0;" edge="1" parent="1" source="srdftgd20x84Ldhx3U6x-1" target="srdftgd20x84Ldhx3U6x-46">
          <mxGeometry width="50" height="50" relative="1" as="geometry">
            <mxPoint x="160" y="510" as="sourcePoint" />
            <mxPoint x="210" y="460" as="targetPoint" />
          </mxGeometry>
        </mxCell>
        <mxCell id="srdftgd20x84Ldhx3U6x-48" value="" style="endArrow=none;html=1;exitX=0;exitY=0.5;exitDx=0;exitDy=0;entryX=1;entryY=0.5;entryDx=0;entryDy=0;" edge="1" parent="1" source="srdftgd20x84Ldhx3U6x-4" target="srdftgd20x84Ldhx3U6x-46">
          <mxGeometry width="50" height="50" relative="1" as="geometry">
            <mxPoint x="170" y="430" as="sourcePoint" />
            <mxPoint x="302.17391304347825" y="487.82608695652175" as="targetPoint" />
          </mxGeometry>
        </mxCell>
        <mxCell id="srdftgd20x84Ldhx3U6x-49" value="1" style="text;html=1;strokeColor=none;fillColor=none;align=center;verticalAlign=middle;whiteSpace=wrap;rounded=0;" vertex="1" parent="1">
          <mxGeometry x="190" y="460" width="40" height="20" as="geometry" />
        </mxCell>
        <mxCell id="srdftgd20x84Ldhx3U6x-51" value="n" style="text;html=1;strokeColor=none;fillColor=none;align=center;verticalAlign=middle;whiteSpace=wrap;rounded=0;" vertex="1" parent="1">
          <mxGeometry x="350" y="440" width="40" height="20" as="geometry" />
        </mxCell>
      </root>
    </mxGraphModel>
  </diagram>
</mxfile>
